<?xml version="1.0" encoding="UTF-8"?>
<svg xmlns="http://www.w3.org/2000/svg" width="270.0mm" height="195.0mm" viewBox="0 0 270.0 195.0">
<!-- Chessboard: 9x6 inner corners, 25.0mm squares, total 250.0x175.0mm -->
<rect width="270.0" height="195.0" fill="white"/>
<rect x="10.0" y="10.0" width="25.0" height="25.0" fill="black"/>
<rect x="60.0" y="10.0" width="25.0" height="25.0" fill="black"/>
<rect x="110.0" y="10.0" width="25.0" height="25.0" fill="black"/>
<rect x="160.0" y="10.0" width="25.0" height="25.0" fill="black"/>
<rect x="210.0" y="10.0" width="25.0" height="25.0" fill="black"/>
<rect x="35.0" y="35.0" width="25.0" height="25.0" fill="black"/>
<rect x="85.0" y="35.0" width="25.0" height="25.0" fill="black"/>
<rect x="135.0" y="35.0" width="25.0" height="25.0" fill="black"/>
<rect x="185.0" y="35.0" width="25.0" height="25.0" fill="black"/>
<rect x="235.0" y="35.0" width="25.0" height="25.0" fill="black"/>
<rect x="10.0" y="60.0" width="25.0" height="25.0" fill="black"/>
<rect x="60.0" y="60.0" width="25.0" height="25.0" fill="black"/>
<rect x="110.0" y="60.0" width="25.0" height="25.0" fill="black"/>
<rect x="160.0" y="60.0" width="25.0" height="25.0" fill="black"/>
<rect x="210.0" y="60.0" width="25.0" height="25.0" fill="black"/>
<rect x="35.0" y="85.0" width="25.0" height="25.0" fill="black"/>
<rect x="85.0" y="85.0" width="25.0" height="25.0" fill="black"/>
<rect x="135.0" y="85.0" width="25.0" height="25.0" fill="black"/>
<rect x="185.0" y="85.0" width="25.0" height="25.0" fill="black"/>
<rect x="235.0" y="85.0" width="25.0" height="25.0" fill="black"/>
<rect x="10.0" y="110.0" width="25.0" height="25.0" fill="black"/>
<rect x="60.0" y="110.0" width="25.0" height="25.0" fill="black"/>
<rect x="110.0" y="110.0" width="25.0" height="25.0" fill="black"/>
<rect x="160.0" y="110.0" width="25.0" height="25.0" fill="black"/>
<rect x="210.0" y="110.0" width="25.0" height="25.0" fill="black"/>
<rect x="35.0" y="135.0" width="25.0" height="25.0" fill="black"/>
<rect x="85.0" y="135.0" width="25.0" height="25.0" fill="black"/>
<rect x="135.0" y="135.0" width="25.0" height="25.0" fill="black"/>
<rect x="185.0" y="135.0" width="25.0" height="25.0" fill="black"/>
<rect x="235.0" y="135.0" width="25.0" height="25.0" fill="black"/>
<rect x="10.0" y="160.0" width="25.0" height="25.0" fill="black"/>
<rect x="60.0" y="160.0" width="25.0" height="25.0" fill="black"/>
<rect x="110.0" y="160.0" width="25.0" height="25.0" fill="black"/>
<rect x="160.0" y="160.0" width="25.0" height="25.0" fill="black"/>
<rect x="210.0" y="160.0" width="25.0" height="25.0" fill="black"/>
<text x="135.0" y="193.0" text-anchor="middle" font-size="3" fill="gray">250x175 mm | 9x6 corners | 25mm squares</text>
</svg>